o ModelComponent
v -0.370533 0.135566 -0.900955
v -0.332886 0.119268 -0.91713
v -0.332886 0.154926 -0.936584
v -0.370533 0.176098 -0.930511
v -0.332886 0 -0.94973
v -0.332886 0.154926 -0.962875
v -0.370533 0 -0.900955
v -0.332886 0 -0.912674
v -0.811783 0.119268 -0.91713
v -0.811783 0.154926 -0.936584
v -0.811783 0 -0.94973
v -0.811783 0 -0.91713
v -0.332886 0 -0.982323
v -0.370533 0 -1
v -0.370533 0.135566 -1
v -0.332886 0.119268 -0.982323
v -0.370533 0.176098 -0.970451
v -0.811783 0.154926 -0.962875
v -0.811783 0.119268 -0.982323
v -0.811783 0 -0.982323
v -0.774132 0.135566 -1
v -0.774132 0 -1
v -0.774132 0.176098 -0.970451
v -0.774132 0.176098 -0.930511
v -0.774132 0.135566 -0.900955
v -0.774132 0 -0.900955
v -0.256273 0.09539 0.900955
v -0.256 0.145 0.854
v -0.834 0.145 0.854
v -0.854 0.145 0.854
v -0.900955 0.09539 0.900955
v 0.947327 0.09539 0.193691
v 0.947327 0.09539 -0.193691
v 0.898415 0.12217 -0.193691
v 0.898415 0.122169 0.193691
v -0.947327 0.09539 -0.193691
v -0.947327 0.09539 0.193691
v -0.898415 0.122169 0.193691
v -0.898415 0.12217 -0.193691
v 0.193691 0.09539 -0.947327
v -0.193691 0.09539 -0.947327
v -0.193691 0.12217 -0.898415
v 0.193691 0.12217 -0.898415
v -0.854 0.145 0.256
v -0.900955 0.09539 0.256271
v 0.854 0.145 0.854
v 0.256 0.145 0.854
v 0.256273 0.09539 0.900955
v 0.900955 0.09539 0.900955
v -0.193691 0.09539 0.947327
v -0.193691 0.122169 0.898415
v 0.193691 0.09539 0.947327
v 0.193691 0.122169 0.898415
v -0.854 0.145 -0.854
v -0.900955 0.09539 -0.900955
v -0.900955 0.09539 -0.256271
v -0.854 0.145 -0.256
v -0.256 0.145 -0.854
v -0.256271 0.09539 -0.900955
v 0.900955 0.09539 0.256273
v 0.854 0.145 0.256
v 0.900955 0.09539 -0.256271
v 0.854 0.146 -0.256
v 0.256273 0.095559 -0.900955
v 0.256 0.146 -0.854
v 0.900955 0.09539 -0.900414
v 0.854 0.146 -0.854
v 0.900955 0.095345 -0.900414
v 0.774134 0.135566 -0.900955
v 0.811782 0.119268 -0.91713
v 0.811782 0.154926 -0.936584
v 0.774134 0.176098 -0.930511
v 0.811782 0 -0.94973
v 0.811782 0.154926 -0.962875
v 0.774134 0 -0.900955
v 0.811782 0 -0.912674
v 0.332885 0.119268 -0.91713
v 0.332885 0.154926 -0.936584
v 0.332885 0 -0.94973
v 0.332885 0 -0.91713
v 0.811782 0 -0.982323
v 0.774134 0 -1
v 0.774134 0.135566 -1
v 0.811782 0.119268 -0.982323
v 0.774134 0.176098 -0.970451
v 0.332885 0.154926 -0.962875
v 0.332885 0.119268 -0.982323
v 0.332885 0 -0.982323
v 0.370535 0.135566 -1
v 0.370535 0 -1
v 0.370535 0.176098 -0.970451
v 0.370535 0.176098 -0.930511
v 0.370535 0.135566 -0.900955
v 0.370535 0 -0.900955
v 0.900955 0.135566 -0.774134
v 0.930511 0.176098 -0.774134
v 0.936584 0.154926 -0.811782
v 0.91713 0.119268 -0.811782
v 0.94973 0 -0.811782
v 0.962875 0.154926 -0.811782
v 0.900955 0 -0.774134
v 0.912674 0 -0.811782
v 0.91713 0.119268 -0.332885
v 0.91713 0 -0.332885
v 0.94973 0 -0.332885
v 0.936584 0.154926 -0.332885
v 0.982323 0 -0.811782
v 0.982323 0.119268 -0.811782
v 1 0.135566 -0.774134
v 1 0 -0.774134
v 0.970451 0.176098 -0.774134
v 0.982323 0 -0.332885
v 0.982323 0.119268 -0.332885
v 0.962875 0.154926 -0.332885
v 1 0.135566 -0.370535
v 1 0 -0.370535
v 0.970451 0.176098 -0.370535
v 0.930511 0.176098 -0.370535
v 0.900955 0.135566 -0.370535
v 0.900955 0 -0.370535
v -0.900955 0.135566 0.370533
v -0.91713 0.119267 0.332886
v -0.936584 0.154926 0.332886
v -0.930511 0.176098 0.370533
v -0.94973 0 0.332886
v -0.962875 0.154926 0.332886
v -0.900955 0 0.370533
v -0.912674 0 0.332886
v -0.91713 0.119267 0.811783
v -0.936584 0.154926 0.811783
v -0.94973 0 0.811783
v -0.91713 0 0.811783
v -0.982323 0 0.332886
v -1 0 0.370533
v -1 0.135566 0.370533
v -0.982323 0.119267 0.332886
v -0.970451 0.176098 0.370533
v -0.962875 0.154926 0.811783
v -0.982323 0.119267 0.811783
v -0.982323 0 0.811783
v -1 0.135566 0.774132
v -1 0 0.774132
v -0.970451 0.176098 0.774132
v -0.930511 0.176098 0.774132
v -0.900955 0.135566 0.774132
v -0.900955 0 0.774132
v -0.900955 0.135566 -0.370533
v -0.930511 0.176098 -0.370533
v -0.936584 0.154926 -0.332886
v -0.91713 0.119268 -0.332886
v -0.94973 0 -0.332886
v -0.962875 0.154926 -0.332886
v -0.900955 0 -0.370533
v -0.912674 0 -0.332886
v -0.91713 0.119268 -0.811783
v -0.91713 0 -0.811783
v -0.94973 0 -0.811783
v -0.936584 0.154926 -0.811783
v -0.982323 0 -0.332886
v -0.982323 0.119268 -0.332886
v -1 0.135566 -0.370533
v -1 0 -0.370533
v -0.970451 0.176098 -0.370533
v -0.982323 0 -0.811783
v -0.982323 0.119268 -0.811783
v -0.962875 0.154926 -0.811783
v -1 0.135566 -0.774132
v -1 0 -0.774132
v -0.970451 0.176098 -0.774132
v -0.930511 0.176098 -0.774132
v -0.900955 0.135566 -0.774132
v -0.900955 0 -0.774132
v -0.370533 0.135566 0.900955
v -0.370533 0.176098 0.930511
v -0.332886 0.154926 0.936584
v -0.332886 0.119267 0.91713
v -0.332886 0 0.94973
v -0.332886 0.154926 0.962875
v -0.370533 0 0.900955
v -0.332886 0 0.912674
v -0.811783 0.119267 0.91713
v -0.811783 0 0.91713
v -0.811783 0 0.94973
v -0.811783 0.154926 0.936584
v -0.332886 0 0.982323
v -0.332886 0.119267 0.982323
v -0.370533 0.135566 1
v -0.370533 0 1
v -0.370533 0.176098 0.970451
v -0.811783 0 0.982323
v -0.811783 0.119267 0.982323
v -0.811783 0.154926 0.962875
v -0.774132 0.135566 1
v -0.774132 0 1
v -0.774132 0.176098 0.970451
v -0.774132 0.176098 0.930511
v -0.774132 0.135566 0.900955
v -0.774132 0 0.900955
v 0.370533 0.135566 0.900955
v 0.332886 0.119267 0.91713
v 0.332886 0.154926 0.936584
v 0.370533 0.176098 0.930511
v 0.332886 0 0.94973
v 0.332886 0.154926 0.962875
v 0.370533 0 0.900955
v 0.332886 0 0.912674
v 0.811783 0.119267 0.91713
v 0.811783 0.154926 0.936584
v 0.811783 0 0.94973
v 0.811783 0 0.91713
v 0.332886 0 0.982323
v 0.370533 0 1
v 0.370533 0.135566 1
v 0.332886 0.119267 0.982323
v 0.370533 0.176098 0.970451
v 0.811783 0.154926 0.962875
v 0.811783 0.119267 0.982323
v 0.811783 0 0.982323
v 0.774132 0.135566 1
v 0.774132 0 1
v 0.774132 0.176098 0.970451
v 0.774132 0.176098 0.930511
v 0.774132 0.135566 0.900955
v 0.774132 0 0.900955
v 0.900955 0.135566 0.370533
v 0.930511 0.176098 0.370533
v 0.936584 0.154926 0.332886
v 0.91713 0.119267 0.332886
v 0.94973 0 0.332886
v 0.962875 0.154926 0.332886
v 0.900955 0 0.370533
v 0.912674 0 0.332886
v 0.91713 0.119267 0.811783
v 0.91713 0 0.811783
v 0.94973 0 0.811783
v 0.936584 0.154926 0.811783
v 0.982323 0 0.332886
v 0.982323 0.119267 0.332886
v 1 0.135566 0.370533
v 1 0 0.370533
v 0.970451 0.176098 0.370533
v 0.982323 0 0.811783
v 0.982323 0.119267 0.811783
v 0.962875 0.154926 0.811783
v 1 0.135566 0.774132
v 1 0 0.774132
v 0.970451 0.176098 0.774132
v 0.930511 0.176098 0.774132
v 0.900955 0.135566 0.774132
v 0.900955 0 0.774132
v 0.834 0.1 0.256
v 0.834 0.1 0.8346
v -0.256 0.1 0.8346
v -0.834 0.1 0.8346
v 0.256 0.1 0.8346
v -0.834 0.1 0.256
v -0.834 0.1 -0.256
v -0.834 0.1 -0.834
v -0.256 0.1 -0.834
v 0.256 0.1 -0.834
v 0.834 0.1 -0.834
v 0.834 0.1 -0.256
vt 0.9225 0.051
vt 0.9264 0.0344
vt 0.9407 0.0411
vt 0.9399 0.051
vt 0.9463 0.0003
vt 0.9534 0.041
vt 0.9007 0.051
vt 0.921 0.0075
vt 0.9278 0.2625
vt 0.941 0.2595
vt 0.9469 0.2901
vt 0.9221 0.2864
vt 0.9743 0.0054
vt 0.9949 0.051
vt 0.9709 0.051
vt 0.9667 0.0344
vt 0.9539 0.051
vt 0.9542 0.2595
vt 0.9669 0.2629
vt 0.974 0.2858
vt 0.9709 0.2471
vt 0.9949 0.2471
vt 0.9539 0.2471
vt 0.9399 0.2471
vt 0.9225 0.2471
vt 0.9007 0.2471
vt 0.339274853198724 0.103866025342173
vt 0.3394051092736 0.1262695930924
vt 0.0636248481804 0.1262695930924
vt 0.0540822785924 0.1262695930924
vt 0.031678710842173 0.103866025342173
vt 0.913546691004564 0.441321822196535
vt 0.913546691004564 0.626152806803465
vt 0.890209382820151 0.626152806803465
vt 0.890209382820151 0.441321822196535
vt 0.00955330899543616 0.626152806803465
vt 0.00955330899543616 0.441321822196535
vt 0.032890617179849 0.441321822196535
vt 0.032890617179849 0.626152806803465
vt 0.553965492303465 0.985734005504564
vt 0.369134507696535 0.985734005504564
vt 0.369134507696535 0.962396697320151
vt 0.553965492303465 0.962396697320151
vt 0.0540822785924 0.4115924237736
vt 0.031678710842173 0.411463121955683
vt 0.8690177214076 0.1262695930924
vt 0.5836948907264 0.1262695930924
vt 0.583825146801276 0.103866025342173
vt 0.891421289157827 0.103866025342173
vt 0.369134507696535 0.0817406234954361
vt 0.369134507696535 0.105077931679849
vt 0.553965492303465 0.0817406234954361
vt 0.553965492303465 0.105077931679849
vt 0.0540822785924 0.9412050359076
vt 0.031678710842173 0.963608603657827
vt 0.031678710842173 0.656011507044317
vt 0.0540822785924 0.6558822052264
vt 0.3394051092736 0.9412050359076
vt 0.339275807455683 0.963608603657827
vt 0.891421289157827 0.411462167698724
vt 0.8690177214076 0.4115924237736
vt 0.891421289157827 0.656011507044317
vt 0.8690177214076 0.6558822052264
vt 0.583825146801276 0.963608603657827
vt 0.5836948907264 0.9412050359076
vt 0.891421289157827 0.963350477150472
vt 0.8690177214076 0.9412050359076
vt 0.8594751518196 0.4115924237736
vt 0.8594751518196 0.13552588559276
vt 0.3394051092736 0.13552588559276
vt 0.0636248481804 0.13552588559276
vt 0.5836948907264 0.13552588559276
vt 0.0636248481804 0.4115924237736
vt 0.0636248481804 0.6558822052264
vt 0.0636248481804 0.9316624663196
vt 0.3394051092736 0.9316624663196
vt 0.5836948907264 0.9316624663196
vt 0.8594751518196 0.9316624663196
vt 0.8594751518196 0.6558822052264
vn 0.0296 0.1676 0.9854
vn 0.8018 0.0771 0.5926
vn 0.8639 0.4108 0.2913
vn 0.0387 0.8625 0.5046
vn 1 0 0
vn 0.8627 0.4148 -0.2894
vn 0.0301 0.0014 0.9995
vn 0.7609 0.0113 0.6488
vn -0.7947 0.0694 0.603
vn -0.8597 0.4167 0.2955
vn -1 0 0
vn -0.7676 0 0.6409
vn 0.7778 0 -0.6285
vn 0.0378 0 -0.9993
vn 0.0348 0.1666 -0.9854
vn 0.8033 0.069 -0.5916
vn 0.04 0.8621 -0.5052
vn -0.8627 0.4148 -0.2894
vn -0.8033 0.0689 -0.5916
vn -0.7778 0 -0.6285
vn -0.0348 0.1666 -0.9854
vn -0.0378 -0.0001 -0.9993
vn -0.04 0.8621 -0.5052
vn -0.0387 0.8625 0.5046
vn -0.0322 0.1668 0.9855
vn -0.0346 0 0.9994
vn -0.0318 0.6943 0.7189
vn -0.0159 0.6893 0.7243
vn -0.0861 0.8323 0.4403
vn -0.1563 0.9753 0.1563
vn -0.5932 0.5441 0.5933
vn 0.4956 0.868 0.0319
vn 0.4964 0.8675 -0.0318
vn 0.5113 0.8571 -0.0622
vn 0.5096 0.8581 0.0622
vn -0.4956 0.868 -0.0319
vn -0.4956 0.868 0.0319
vn -0.5096 0.8581 0.0623
vn -0.5096 0.8581 -0.0623
vn 0.0316 0.8676 -0.4963
vn -0.0319 0.868 -0.4956
vn -0.0623 0.8581 -0.5096
vn 0.0618 0.8573 -0.5111
vn -0.7243 0.6893 0.0159
vn -0.7189 0.6943 0.0318
vn 0.1563 0.9753 0.1563
vn 0.0159 0.6893 0.7243
vn 0.0318 0.6943 0.7189
vn 0.5932 0.5441 0.5933
vn -0.0319 0.868 0.4956
vn -0.0622 0.8581 0.5096
vn 0.0319 0.868 0.4956
vn 0.0622 0.8581 0.5096
vn -0.4257 0.7985 -0.4257
vn -0.7189 0.6943 -0.0318
vn -0.7243 0.6893 -0.0159
vn -0.0193 0.9998 0.0022
vn -0.0193 0.9998 -0.0022
vn -0.4605 0.8876 0
vn 0.0022 0.9998 0.0193
vn -0.0022 0.9998 0.0193
vn 0 0.8876 0.4605
vn -0.0159 0.6893 -0.7243
vn -0.0318 0.6943 -0.7189
vn 0.7189 0.6943 0.0318
vn 0.7243 0.6893 0.0159
vn 0.7223 0.6861 -0.0864
vn 0.7414 0.6697 -0.0433
vn 0.022 0.9998 0
vn 0.0176 0.9998 0.0023
vn 0.4709 0.8822 0.0013
vn 0.1119 0.7082 -0.6971
vn 0.0665 0.6954 -0.7155
vn -0.0013 0.8822 -0.4709
vn -0.0023 0.9998 -0.0176
vn 0 0.9998 -0.0222
vn 0.7644 0.6446 0.0156
vn 0.0028 0.6741 -0.7386
vn 0.0933 0.1715 0.9808
vn 0.123 0.8551 0.5036
vn 0.0923 0.0043 0.9957
vn -0.8597 0.4167 0.2954
vn -0.7677 0 0.6408
vn 0.1155 0 -0.9933
vn 0.1096 0.1683 -0.9796
vn 0.127 0.8535 -0.5054
vn -0.8033 0.069 -0.5916
vn -0.1096 0.1683 -0.9796
vn -0.1155 0 -0.9933
vn -0.127 0.8535 -0.5054
vn -0.123 0.8551 0.5036
vn -0.1015 0.1689 0.9804
vn -0.1058 0 0.9944
vn -0.9808 0.1715 -0.0933
vn -0.5036 0.8551 -0.123
vn -0.2913 0.4108 -0.8639
vn -0.5926 0.0772 -0.8018
vn 0 0 -1
vn 0.2894 0.4148 -0.8627
vn -0.9957 0.0043 -0.0923
vn -0.6488 0.0108 -0.7609
vn -0.603 0.0694 0.7947
vn -0.6409 0.0002 0.7676
vn 0 0 1
vn -0.2954 0.4167 0.8597
vn 0.6285 0 -0.7778
vn 0.5916 0.069 -0.8033
vn 0.9796 0.1683 -0.1096
vn 0.9933 0 -0.1155
vn 0.5054 0.8535 -0.127
vn 0.6285 0 0.7778
vn 0.5916 0.069 0.8033
vn 0.2894 0.4148 0.8627
vn 0.9796 0.1682 0.1096
vn 0.9933 0 0.1155
vn 0.5054 0.8535 0.127
vn -0.5036 0.8551 0.123
vn -0.9804 0.1689 0.1015
vn -0.9944 0 0.1058
vn 0.9854 0.1676 -0.0296
vn 0.5926 0.0771 -0.8018
vn 0.2913 0.4108 -0.8639
vn 0.5046 0.8625 -0.0387
vn -0.2894 0.4148 -0.8627
vn 0.9995 0.0014 -0.0301
vn 0.6488 0.0113 -0.7609
vn 0.603 0.0694 0.7947
vn 0.2955 0.4167 0.8597
vn 0.6409 0 0.7676
vn -0.6285 0 -0.7778
vn -0.9993 0 -0.0378
vn -0.9854 0.1666 -0.0348
vn -0.5916 0.069 -0.8033
vn -0.5052 0.8621 -0.04
vn -0.2894 0.4148 0.8627
vn -0.5916 0.0689 0.8033
vn -0.6285 0 0.7778
vn -0.9854 0.1666 0.0348
vn -0.9993 0.0001 0.0378
vn -0.5052 0.8621 0.04
vn 0.5046 0.8625 0.0387
vn 0.9855 0.1668 0.0322
vn 0.9994 0 0.0346
vn 0.9854 0.1676 0.0296
vn 0.2913 0.4108 0.8639
vn 0.5926 0.0771 0.8018
vn 0.9995 0.0014 0.0301
vn 0.6488 0.0108 0.7609
vn 0.603 0.0695 -0.7947
vn 0.6409 -0.0001 -0.7676
vn 0.2955 0.4167 -0.8597
vn -0.6285 0.0001 0.7778
vn -0.5916 0.069 0.8033
vn -0.9993 0 0.0378
vn -0.5916 0.0689 -0.8033
vn 0.9855 0.1668 -0.0322
vn 0.9994 0 -0.0346
vn 0.0296 0.1676 -0.9854
vn 0.0387 0.8625 -0.5046
vn 0.8639 0.4108 -0.2913
vn 0.8018 0.0772 -0.5926
vn 0.8627 0.4148 0.2894
vn 0.0301 0.0014 -0.9995
vn 0.7609 0.0108 -0.6488
vn -0.7947 0.0695 -0.603
vn -0.7676 0.0001 -0.6409
vn -0.8597 0.4167 -0.2955
vn 0.7778 0 0.6285
vn 0.8033 0.069 0.5916
vn 0.0348 0.1666 0.9854
vn 0.0378 0 0.9993
vn 0.04 0.8621 0.5052
vn -0.7778 0 0.6285
vn -0.8033 0.0689 0.5916
vn -0.8627 0.4148 0.2894
vn -0.0348 0.1666 0.9854
vn -0.0378 0 0.9993
vn -0.04 0.8621 0.5052
vn -0.0387 0.8625 -0.5046
vn -0.0322 0.1668 -0.9855
vn -0.0346 0 -0.9994
vn -0.0296 0.1676 -0.9854
vn -0.8018 0.0771 -0.5926
vn -0.8639 0.4108 -0.2913
vn -0.0301 0.0014 -0.9995
vn -0.7609 0.0113 -0.6488
vn 0.7947 0.0694 -0.603
vn 0.8597 0.4167 -0.2955
vn 0.7676 0 -0.6409
vn -0.8033 0.069 0.5916
vn 0.8033 0.0689 0.5916
vn 0.7778 0.0001 0.6285
vn 0.0322 0.1668 -0.9855
vn 0.0346 0 -0.9994
vn -0.9854 0.1676 -0.0296
vn -0.5046 0.8625 -0.0387
vn -0.9995 0.0014 -0.0301
vn -0.603 0.0695 0.7947
vn -0.6409 0 0.7676
vn -0.2955 0.4167 0.8597
vn 0.6285 -0.0001 -0.7778
vn 0.9854 0.1666 -0.0348
vn 0.9993 0 -0.0378
vn 0.5052 0.8621 -0.04
vn 0.5916 0.0689 0.8033
vn 0.9854 0.1666 0.0348
vn 0.9993 0 0.0378
vn 0.5052 0.8621 0.04
vn -0.5046 0.8625 0.0387
vn -0.9855 0.1668 0.0322
vn -0.9994 0.0001 0.0346
vn -0.026037 0.011572 0
vn 0 0.0112132 -0.02601
vn 0 0.00993279999999999 -0.02304
vn -0.07925 0.98755 0.0878
vn 0.026037 0.011572 0
vn 0.02304 0.01024 0
vn 0.02601 0.01156 0
vn -0.0068 1 -0.0068
vn 0 0.01156 0.02601
vn 0 0.01024 0.02304
vn 0 0.01024 0.023552
vn 0 0.001992 0.0045816
vn 0.002 1 0.0003
vn -0.00621 0.0027 0
vn -0.02304 0.01024 0
vn -0.0003 1 -0.0017
vn -0.00621 0.003645 0
g ModelComponent
f 1/1/1 2/2/2 3/3/3 4/4/4
f 5/5/5 6/6/6 3/3/3
f 7/7/7 8/8/8 2/2/2 1/1/1
f 9/9/9 10/10/10 11/11/11 12/12/12
f 13/13/13 14/14/14 15/15/15 16/16/16
f 16/16/16 15/15/15 17/17/17 6/6/6
f 17/17/17 4/4/4 3/3/3 6/6/6
f 11/11/11 18/18/18 19/19/19 20/20/20
f 18/18/18 11/11/11 10/10/10
f 5/5/5 3/3/3 2/2/2 8/8/8
f 6/6/6 5/5/5 13/13/13 16/16/16
f 21/21/21 15/15/15 14/14/14 22/22/22
f 23/23/23 17/17/17 15/15/15 21/21/21
f 24/24/24 4/4/4 17/17/17 23/23/23
f 25/25/25 1/1/1 4/4/4 24/24/24
f 26/26/26 7/7/7 1/1/1 25/25/25
f 22/22/22 20/20/20 19/19/19 21/21/21
f 23/23/23 21/21/21 19/19/19 18/18/18
f 18/18/18 10/10/10 24/24/24 23/23/23
f 9/9/9 25/25/25 24/24/24 10/10/10
f 12/12/12 26/26/26 25/25/25 9/9/9
f 27/27/27 28/28/28 29/29/29 30/30/30 31/31/31
f 32/32/32 33/33/33 34/34/34 35/35/35
f 36/36/36 37/37/37 38/38/38 39/39/39
f 40/40/40 41/41/41 42/42/42 43/43/43
f 30/30/30 44/44/44 45/45/45 31/31/31
f 46/46/46 47/47/47 48/48/48 49/49/49
f 27/27/27 50/50/50 51/51/51 28/28/28
f 50/50/50 52/52/52 53/53/53 51/51/51
f 48/48/48 47/47/47 53/53/53 52/52/52
f 45/45/45 44/44/44 38/38/38 37/37/37
f 54/54/54 55/55/54 56/56/55 57/57/56
f 56/56/55 36/36/36 39/39/39 57/57/56
f 44/44/57 57/57/58 39/39/59 38/38/59
f 47/47/60 28/28/61 51/51/62 53/53/62
f 54/54/54 58/58/63 59/59/64 55/55/54
f 59/59/64 58/58/63 42/42/42 41/41/41
f 46/46/46 49/49/49 60/60/65 61/61/66
f 60/60/65 32/32/32 35/35/35 61/61/66
f 62/62/67 63/63/68 34/34/34 33/33/33
f 63/63/69 61/61/70 35/35/71 34/34/71
f 64/64/72 40/40/40 43/43/43 65/65/73
f 43/43/74 42/42/74 58/58/75 65/65/76
f 66/66/77 67/67/77 63/63/68 62/62/67
f 67/67/78 68/66/78 64/64/72 65/65/73
f 69/1/79 70/2/2 71/3/3 72/4/80
f 73/5/5 74/6/6 71/3/3
f 75/7/81 76/8/8 70/2/2 69/1/79
f 77/9/9 78/10/82 79/11/11 80/12/83
f 81/13/13 82/14/84 83/15/85 84/16/16
f 84/16/16 83/15/85 85/17/86 74/6/6
f 85/17/86 72/4/80 71/3/3 74/6/6
f 79/11/11 86/18/18 87/19/87 88/20/20
f 86/18/18 79/11/11 78/10/82
f 73/5/5 71/3/3 70/2/2 76/8/8
f 74/6/6 73/5/5 81/13/13 84/16/16
f 89/21/88 83/15/85 82/14/84 90/22/89
f 91/23/90 85/17/86 83/15/85 89/21/88
f 92/24/91 72/4/80 85/17/86 91/23/90
f 93/25/92 69/1/79 72/4/80 92/24/91
f 94/26/93 75/7/81 69/1/79 93/25/92
f 90/22/89 88/20/20 87/19/87 89/21/88
f 91/23/90 89/21/88 87/19/87 86/18/18
f 86/18/18 78/10/82 92/24/91 91/23/90
f 77/9/9 93/25/92 92/24/91 78/10/82
f 80/12/83 94/26/93 93/25/92 77/9/9
f 95/25/94 96/24/95 97/10/96 98/9/97
f 99/11/98 97/10/96 100/18/99
f 101/26/100 95/25/94 98/9/97 102/12/101
f 103/2/102 104/8/103 105/5/104 106/3/105
f 107/20/106 108/19/107 109/21/108 110/22/109
f 108/19/107 100/18/99 111/23/110 109/21/108
f 111/23/110 100/18/99 97/10/96 96/24/95
f 105/5/104 112/13/111 113/16/112 114/6/113
f 114/6/113 106/3/105 105/5/104
f 99/11/98 102/12/101 98/9/97 97/10/96
f 100/18/99 108/19/107 107/20/106 99/11/98
f 115/15/114 116/14/115 110/22/109 109/21/108
f 117/17/116 115/15/114 109/21/108 111/23/110
f 118/4/117 117/17/116 111/23/110 96/24/95
f 119/1/118 118/4/117 96/24/95 95/25/94
f 120/7/119 119/1/118 95/25/94 101/26/100
f 116/14/115 115/15/114 113/16/112 112/13/111
f 117/17/116 114/6/113 113/16/112 115/15/114
f 114/6/113 117/17/116 118/4/117 106/3/105
f 103/2/102 106/3/105 118/4/117 119/1/118
f 104/8/103 103/2/102 119/1/118 120/7/119
f 121/1/120 122/2/121 123/3/122 124/4/123
f 125/5/98 126/6/124 123/3/122
f 127/7/125 128/8/126 122/2/121 121/1/120
f 129/9/127 130/10/128 131/11/104 132/12/129
f 133/13/130 134/14/131 135/15/132 136/16/133
f 136/16/133 135/15/132 137/17/134 126/6/124
f 137/17/134 124/4/123 123/3/122 126/6/124
f 131/11/104 138/18/135 139/19/136 140/20/137
f 138/18/135 131/11/104 130/10/128
f 125/5/98 123/3/122 122/2/121 128/8/126
f 126/6/124 125/5/98 133/13/130 136/16/133
f 141/21/138 135/15/132 134/14/131 142/22/139
f 143/23/140 137/17/134 135/15/132 141/21/138
f 144/24/141 124/4/123 137/17/134 143/23/140
f 145/25/142 121/1/120 124/4/123 144/24/141
f 146/26/143 127/7/125 121/1/120 145/25/142
f 142/22/139 140/20/137 139/19/136 141/21/138
f 143/23/140 141/21/138 139/19/136 138/18/135
f 138/18/135 130/10/128 144/24/141 143/23/140
f 129/9/127 145/25/142 144/24/141 130/10/128
f 132/12/129 146/26/143 145/25/142 129/9/127
f 147/1/144 148/4/141 149/3/145 150/2/146
f 151/5/104 149/3/145 152/6/135
f 153/7/147 147/1/144 150/2/146 154/8/148
f 155/9/149 156/12/150 157/11/98 158/10/151
f 159/13/152 160/16/153 161/15/138 162/14/154
f 160/16/153 152/6/135 163/17/140 161/15/138
f 163/17/140 152/6/135 149/3/145 148/4/141
f 157/11/98 164/20/130 165/19/155 166/18/124
f 166/18/124 158/10/151 157/11/98
f 151/5/104 154/8/148 150/2/146 149/3/145
f 152/6/135 160/16/153 159/13/152 151/5/104
f 167/21/132 168/22/131 162/14/154 161/15/138
f 169/23/134 167/21/132 161/15/138 163/17/140
f 170/24/123 169/23/134 163/17/140 148/4/141
f 171/25/156 170/24/123 148/4/141 147/1/144
f 172/26/157 171/25/156 147/1/144 153/7/147
f 168/22/131 167/21/132 165/19/155 164/20/130
f 169/23/134 166/18/124 165/19/155 167/21/132
f 166/18/124 169/23/134 170/24/123 158/10/151
f 155/9/149 158/10/151 170/24/123 171/25/156
f 156/12/150 155/9/149 171/25/156 172/26/157
f 173/1/158 174/4/159 175/3/160 176/2/161
f 177/5/5 175/3/160 178/6/162
f 179/7/163 173/1/158 176/2/161 180/8/164
f 181/9/165 182/12/166 183/11/11 184/10/167
f 185/13/168 186/16/169 187/15/170 188/14/171
f 186/16/169 178/6/162 189/17/172 187/15/170
f 189/17/172 178/6/162 175/3/160 174/4/159
f 183/11/11 190/20/173 191/19/174 192/18/175
f 192/18/175 184/10/167 183/11/11
f 177/5/5 180/8/164 176/2/161 175/3/160
f 178/6/162 186/16/169 185/13/168 177/5/5
f 193/21/176 194/22/177 188/14/171 187/15/170
f 195/23/178 193/21/176 187/15/170 189/17/172
f 196/24/179 195/23/178 189/17/172 174/4/159
f 197/25/180 196/24/179 174/4/159 173/1/158
f 198/26/181 197/25/180 173/1/158 179/7/163
f 194/22/177 193/21/176 191/19/174 190/20/173
f 195/23/178 192/18/175 191/19/174 193/21/176
f 192/18/175 195/23/178 196/24/179 184/10/167
f 181/9/165 184/10/167 196/24/179 197/25/180
f 182/12/166 181/9/165 197/25/180 198/26/181
f 199/1/182 200/2/183 201/3/184 202/4/179
f 203/5/11 204/6/175 201/3/184
f 205/7/185 206/8/186 200/2/183 199/1/182
f 207/9/187 208/10/188 209/11/5 210/12/189
f 211/13/173 212/14/177 213/15/176 214/16/190
f 214/16/190 213/15/176 215/17/178 204/6/175
f 215/17/178 202/4/179 201/3/184 204/6/175
f 209/11/5 216/18/162 217/19/191 218/20/192
f 216/18/162 209/11/5 208/10/188
f 203/5/11 201/3/184 200/2/183 206/8/186
f 204/6/175 203/5/11 211/13/173 214/16/190
f 219/21/170 213/15/176 212/14/177 220/22/171
f 221/23/172 215/17/178 213/15/176 219/21/170
f 222/24/159 202/4/179 215/17/178 221/23/172
f 223/25/193 199/1/182 202/4/179 222/24/159
f 224/26/194 205/7/185 199/1/182 223/25/193
f 220/22/171 218/20/192 217/19/191 219/21/170
f 221/23/172 219/21/170 217/19/191 216/18/162
f 216/18/162 208/10/188 222/24/159 221/23/172
f 207/9/187 223/25/193 222/24/159 208/10/188
f 210/12/189 224/26/194 223/25/193 207/9/187
f 225/1/195 226/4/196 227/3/96 228/2/97
f 229/5/98 227/3/96 230/6/99
f 231/7/197 225/1/195 228/2/97 232/8/101
f 233/9/198 234/12/199 235/11/104 236/10/200
f 237/13/201 238/16/107 239/15/202 240/14/203
f 238/16/107 230/6/99 241/17/204 239/15/202
f 241/17/204 230/6/99 227/3/96 226/4/196
f 235/11/104 242/20/111 243/19/205 244/18/113
f 244/18/113 236/10/200 235/11/104
f 229/5/98 232/8/101 228/2/97 227/3/96
f 230/6/99 238/16/107 237/13/201 229/5/98
f 245/21/206 246/22/207 240/14/203 239/15/202
f 247/23/208 245/21/206 239/15/202 241/17/204
f 248/24/209 247/23/208 241/17/204 226/4/196
f 249/25/210 248/24/209 226/4/196 225/1/195
f 250/26/211 249/25/210 225/1/195 231/7/197
f 246/22/207 245/21/206 243/19/205 242/20/111
f 247/23/208 244/18/113 243/19/205 245/21/206
f 244/18/113 247/23/208 248/24/209 236/10/200
f 233/9/198 236/10/200 248/24/209 249/25/210
f 234/12/199 233/9/198 249/25/210 250/26/211
f 46/46/46 61/61/70 251/68/212 252/69/213
f 253/70/214 254/71/213 30/30/30 29/29/215 28/28/61
f 47/47/60 46/46/46 252/69/213 255/72/214
f 255/72/214 253/70/214 28/28/61 47/47/60
f 44/44/57 30/30/30 254/71/216 256/73/217
f 257/74/217 258/75/218 54/54/219 57/57/58
f 57/57/58 44/44/57 256/73/217 257/74/217
f 58/58/75 54/54/219 258/75/220 259/76/221
f 260/77/222 261/78/223 67/67/224 65/65/76
f 65/65/76 58/58/75 259/76/221 260/77/222
f 262/79/225 251/68/226 61/61/70 63/63/69
f 67/67/227 261/78/228 262/79/225 63/63/69
#h 0,1,2,3,4,5,6,7,8,9,10,11,12,13,14,15,16,17,18,19,20,45,46,47,48,49,50,51,52,53,54,55,56,57,58,59,60,61,62,63,64,65,66,67,68,69,70,71,72,73,74,75,76,77,78,79,80,81,82,83,84,85,86,87,88,89,90,91,92,93,94,95,96,97,98,99,100,101,102,103,104,105,106,107,108,109,110,111,112,113,114,115,116,117,118,119,120,121,122,123,124,125,126,127,128,129,130,131,132,133,134,135,136,137,138,139,140,141,142,143,144,145,146,147,148,149,150,151,152,153,154,155,156,157,158,159,160,161,162,163,164,165,166,167,168,169,170,171,172,173,174,175,176,177,178,179,180,181,182,183,184,185,186,187,188,189,190,191
